<svg width="133" height="27" viewBox="0 0 133 27" fill="none" xmlns="http://www.w3.org/2000/svg">
<path d="M1.224 8.15C1.224 3.594 5.066 0.364 10.472 0.364C15.878 0.364 19.278 3.356 19.278 8.116H13.804C13.804 6.348 12.478 5.26 10.404 5.26C8.16 5.26 6.732 6.28 6.732 7.946C6.732 9.476 7.514 10.224 9.282 10.598L13.056 11.38C17.544 12.298 19.686 14.44 19.686 18.418C19.686 23.28 15.878 26.442 10.098 26.442C4.488 26.442 0.85 23.416 0.85 18.69H6.324C6.324 20.526 7.684 21.546 10.132 21.546C12.614 21.546 14.178 20.56 14.178 18.962C14.178 17.568 13.532 16.854 11.866 16.514L8.024 15.732C3.536 14.814 1.224 12.264 1.224 8.15ZM28.8448 0.84V26H23.3368V0.84H28.8448ZM43.9546 26H34.0946V0.84H43.6146C50.9926 0.84 56.1266 6.008 56.1266 13.488C56.1266 20.832 51.1286 26 43.9546 26ZM43.0706 5.94H39.6026V20.9H43.4106C47.7626 20.9 50.3126 18.146 50.3126 13.488C50.3126 8.728 47.6266 5.94 43.0706 5.94Z" fill="#141A2F"/>
<path d="M70.8398 26.408C63.2918 26.408 58.5658 21.41 58.5658 13.454C58.5658 5.6 63.5638 0.431999 71.0778 0.431999C77.3678 0.431999 81.8898 4.036 82.6718 9.68H76.8578C76.1098 7.164 73.9678 5.736 70.9418 5.736C66.8618 5.736 64.3798 8.626 64.3798 13.42C64.3798 18.146 66.8958 21.104 70.9418 21.104C74.0358 21.104 76.3138 19.574 76.9938 17.092H82.7058C81.8218 22.702 77.1298 26.408 70.8398 26.408ZM109.645 13.386C109.645 21.07 104.579 26.408 97.2695 26.408C89.9935 26.408 84.9955 21.104 84.9955 13.42C84.9955 5.736 90.0275 0.397999 97.3035 0.397999C104.613 0.397999 109.645 5.702 109.645 13.386ZM103.831 13.386C103.831 8.592 101.383 5.702 97.3375 5.702C93.2575 5.702 90.8095 8.592 90.8095 13.386C90.8095 18.214 93.2575 21.104 97.3375 21.104C101.383 21.104 103.831 18.146 103.831 13.386ZM123.683 17.636H118.991V26H113.483V0.84H123.683C128.817 0.84 132.251 4.206 132.251 9.238C132.251 14.27 128.817 17.636 123.683 17.636ZM122.459 5.736H118.991V12.74H122.459C125.111 12.74 126.437 11.584 126.437 9.238C126.437 6.892 125.111 5.736 122.459 5.736Z" fill="#D5B58A"/>
</svg>
